<svg width="17" height="16" viewBox="0 0 17 16" fill="none" xmlns="http://www.w3.org/2000/svg">
<path d="M15.3265 8.85223L16.691 2.74155C16.7895 2.30035 16.46 1.88021 16.0155 1.88021H4.67869L4.41414 0.563769C4.34821 0.235643 4.06455 0 3.73548 0H0.776205C0.393627 0 0.0834961 0.315669 0.0834961 0.705078V1.17513C0.0834961 1.56454 0.393627 1.88021 0.776205 1.88021H2.79323L4.82078 11.9697C4.33572 12.2537 4.00884 12.7861 4.00884 13.3965C4.00884 14.3051 4.73249 15.0417 5.62516 15.0417C6.51783 15.0417 7.24148 14.3051 7.24148 13.3965C7.24148 12.936 7.0554 12.52 6.75589 12.2214H12.8069C12.5074 12.52 12.3213 12.936 12.3213 13.3965C12.3213 14.3051 13.045 15.0417 13.9377 15.0417C14.8303 15.0417 15.554 14.3051 15.554 13.3965C15.554 12.7451 15.182 12.1822 14.6425 11.9157L14.8018 11.2025C14.9003 10.7613 14.5708 10.3411 14.1263 10.3411H6.37898L6.19007 9.40104H14.6511C14.9745 9.40104 15.2549 9.17324 15.3265 8.85223Z" fill="white"/>
</svg>
