<svg width="14" height="15" viewBox="0 0 14 15" fill="none" xmlns="http://www.w3.org/2000/svg">
<path d="M10.1112 1.5C9.46125 2.06543 8.87437 2.65986 8.35437 3.25693C7.5025 2.15684 6.44625 1.04092 5.25 0C2.17937 2.671 0 6.15117 0 8.25C0 11.978 3.13406 15 7 15C10.8659 15 14 11.978 14 8.25C14 6.68936 12.3756 3.47051 10.1112 1.5ZM9.50281 11.48C8.82594 11.9241 7.99125 12.1875 7.08938 12.1875C4.83469 12.1875 3 10.7889 3 8.51807C3 7.38691 3.75969 6.39023 5.27469 4.6875C5.49125 4.92129 8.36312 8.35957 8.36312 8.35957L10.1953 6.4002C10.3247 6.60088 10.4425 6.79717 10.5475 6.98525C11.4022 8.51426 11.0416 10.4707 9.50281 11.48Z" fill="black"/>
</svg>
