<svg width="119" height="17" viewBox="0 0 119 17" fill="none" xmlns="http://www.w3.org/2000/svg">
<path d="M5.492 5.46777V11.8845H6.90296V9.11649H9.5002V11.8845H10.9112V5.46777H9.5002V7.93021H6.90296V5.46777H5.492Z" fill="white"/>
<path fill-rule="evenodd" clip-rule="evenodd" d="M16.3819 9.7658C15.7794 13.7222 12.3628 16.7535 8.23808 16.7535C3.68831 16.7535 0 13.0652 0 8.51542C0 3.96566 3.68831 0.277344 8.23808 0.277344C12.3485 0.277344 15.7559 3.28778 16.3755 7.22412H14.982C14.3783 4.04947 11.5885 1.64938 8.23805 1.64938C4.44658 1.64938 1.37298 4.72298 1.37298 8.51445C1.37298 12.3059 4.44658 15.3795 8.23805 15.3795C11.6022 15.3795 14.4011 12.9598 14.9893 9.7658H16.3819Z" fill="white"/>
<path d="M23.4024 1.34332V15.3319H26.4783V9.29763H32.1404V15.3319H35.2163V1.34332H32.1404V6.7115H26.4783V1.34332H23.4024Z" fill="white"/>
<path d="M41.5486 9.88538V15.3319H44.6246V9.96375L49.8164 1.34332H46.3878L43.1356 6.86823L39.8637 1.34332H36.4156L41.5486 9.88538Z" fill="white"/>
<path d="M54.0677 7.92619V3.73353H56.4579C56.8106 3.73353 57.1502 3.75965 57.4767 3.8119C57.8032 3.86414 58.0906 3.96863 58.3387 4.12537C58.5869 4.26904 58.7828 4.47802 58.9265 4.75231C59.0832 5.02659 59.1616 5.38578 59.1616 5.82986C59.1616 6.27394 59.0832 6.63313 58.9265 6.90742C58.7828 7.1817 58.5869 7.39721 58.3387 7.55395C58.0906 7.69762 57.8032 7.79558 57.4767 7.84783C57.1502 7.90007 56.8106 7.92619 56.4579 7.92619H54.0677ZM50.9918 1.34332V15.3319H54.0677V10.3164H57.3004C58.1755 10.3164 58.92 10.1923 59.5338 9.94416C60.1477 9.68293 60.6441 9.34334 61.0228 8.92538C61.4147 8.50742 61.6955 8.03068 61.8653 7.49517C62.0481 6.9466 62.1396 6.3915 62.1396 5.82986C62.1396 5.25517 62.0481 4.70006 61.8653 4.16455C61.6955 3.62904 61.4147 3.1523 61.0228 2.73434C60.6441 2.31638 60.1477 1.98332 59.5338 1.73515C58.92 1.47393 58.1755 1.34332 57.3004 1.34332H50.9918Z" fill="white"/>
<path d="M64.0594 1.34332V15.3319H74.6782V12.7458H67.1354V9.31722H73.9141V6.92701H67.1354V3.92945H74.5215V1.34332H64.0594Z" fill="white"/>
<path d="M86.0893 6.04537H89.0673C88.9758 5.23557 88.7538 4.5172 88.4011 3.89026C88.0485 3.26332 87.5979 2.74087 87.0493 2.32291C86.5138 1.89189 85.8999 1.56536 85.2077 1.34332C84.5285 1.12127 83.8036 1.01025 83.0329 1.01025C81.9619 1.01025 80.9954 1.19964 80.1334 1.57842C79.2844 1.9572 78.566 2.47965 77.9782 3.14577C77.3905 3.81189 76.9399 4.59557 76.6264 5.4968C76.3129 6.38496 76.1562 7.3515 76.1562 8.3964C76.1562 9.41518 76.3129 10.3687 76.6264 11.2568C76.9399 12.1319 77.3905 12.896 77.9782 13.5491C78.566 14.2021 79.2844 14.7181 80.1334 15.0968C80.9954 15.4625 81.9619 15.6454 83.0329 15.6454C83.895 15.6454 84.6852 15.5148 85.4036 15.2536C86.1219 14.9923 86.7489 14.6136 87.2844 14.1172C87.8199 13.6209 88.2509 13.0201 88.5775 12.3148C88.904 11.6095 89.1064 10.8193 89.1848 9.94416H86.2068C86.0893 10.8846 85.7628 11.6421 85.2272 12.2168C84.7048 12.7915 83.9734 13.0789 83.0329 13.0789C82.3407 13.0789 81.7529 12.9483 81.2697 12.687C80.7864 12.4127 80.3946 12.0536 80.0942 11.6095C79.7938 11.1654 79.5717 10.6691 79.428 10.1205C79.2974 9.55885 79.2321 8.98416 79.2321 8.3964C79.2321 7.78252 79.2974 7.18823 79.428 6.61354C79.5717 6.03884 79.7938 5.52945 80.0942 5.08537C80.3946 4.62822 80.7864 4.26904 81.2697 4.00781C81.7529 3.73353 82.3407 3.59638 83.0329 3.59638C83.4117 3.59638 83.7709 3.66169 84.1105 3.7923C84.4632 3.90985 84.7766 4.07965 85.0509 4.30169C85.3252 4.52373 85.5538 4.78496 85.7366 5.08537C85.9195 5.37272 86.037 5.69272 86.0893 6.04537Z" fill="white"/>
<path d="M93.7539 8.3964C93.7539 7.78252 93.8192 7.18823 93.9498 6.61354C94.0934 6.03884 94.3155 5.52945 94.6159 5.08537C94.9163 4.62822 95.3081 4.26904 95.7914 4.00781C96.2747 3.73353 96.8624 3.59638 97.5547 3.59638C98.2469 3.59638 98.8347 3.73353 99.318 4.00781C99.8012 4.26904 100.193 4.62822 100.493 5.08537C100.794 5.52945 101.009 6.03884 101.14 6.61354C101.284 7.18823 101.356 7.78252 101.356 8.3964C101.356 8.98416 101.284 9.55885 101.14 10.1205C101.009 10.6691 100.794 11.1654 100.493 11.6095C100.193 12.0536 99.8012 12.4127 99.318 12.687C98.8347 12.9483 98.2469 13.0789 97.5547 13.0789C96.8624 13.0789 96.2747 12.9483 95.7914 12.687C95.3081 12.4127 94.9163 12.0536 94.6159 11.6095C94.3155 11.1654 94.0934 10.6691 93.9498 10.1205C93.8192 9.55885 93.7539 8.98416 93.7539 8.3964ZM90.6779 8.3964C90.6779 9.41518 90.8347 10.3687 91.1481 11.2568C91.4616 12.1319 91.9122 12.896 92.5 13.5491C93.0877 14.2021 93.8061 14.7181 94.6551 15.0968C95.5171 15.4625 96.4837 15.6454 97.5547 15.6454C98.6388 15.6454 99.6053 15.4625 100.454 15.0968C101.303 14.7181 102.022 14.2021 102.609 13.5491C103.197 12.896 103.648 12.1319 103.961 11.2568C104.275 10.3687 104.431 9.41518 104.431 8.3964C104.431 7.3515 104.275 6.38496 103.961 5.4968C103.648 4.59557 103.197 3.81189 102.609 3.14577C102.022 2.47965 101.303 1.9572 100.454 1.57842C99.6053 1.19964 98.6388 1.01025 97.5547 1.01025C96.4837 1.01025 95.5171 1.19964 94.6551 1.57842C93.8061 1.9572 93.0877 2.47965 92.5 3.14577C91.9122 3.81189 91.4616 4.59557 91.1481 5.4968C90.8347 6.38496 90.6779 7.3515 90.6779 8.3964Z" fill="white"/>
<path d="M109.61 7.92619V3.73353H112C112.353 3.73353 112.692 3.75965 113.019 3.8119C113.345 3.86414 113.633 3.96863 113.881 4.12537C114.129 4.26904 114.325 4.47802 114.469 4.75231C114.625 5.02659 114.704 5.38578 114.704 5.82986C114.704 6.27394 114.625 6.63313 114.469 6.90742C114.325 7.1817 114.129 7.39721 113.881 7.55395C113.633 7.69762 113.345 7.79558 113.019 7.84783C112.692 7.90007 112.353 7.92619 112 7.92619H109.61ZM106.534 1.34332V15.3319H109.61V10.3164H112.843C113.718 10.3164 114.462 10.1923 115.076 9.94416C115.69 9.68293 116.186 9.34334 116.565 8.92538C116.957 8.50742 117.238 8.03068 117.408 7.49517C117.59 6.9466 117.682 6.3915 117.682 5.82986C117.682 5.25517 117.59 4.70006 117.408 4.16455C117.238 3.62904 116.957 3.1523 116.565 2.73434C116.186 2.31638 115.69 1.98332 115.076 1.73515C114.462 1.47393 113.718 1.34332 112.843 1.34332H106.534Z" fill="white"/>
<path d="M115.924 12.3148V15.3319H119V12.3148H115.924Z" fill="white"/>
</svg>
