<svg width="22" height="17" viewBox="0 0 22 17" fill="none" xmlns="http://www.w3.org/2000/svg">
<path d="M19.7386 4.2367C19.7526 4.42263 19.7526 4.6086 19.7526 4.79453C19.7526 10.4656 15.2158 17 6.92388 17C4.36929 17 1.99621 16.2961 0 15.0742C0.362958 15.1141 0.711909 15.1273 1.08883 15.1273C3.19667 15.1273 5.13706 14.45 6.68656 13.2945C4.70432 13.2547 3.04314 12.0195 2.4708 10.3195C2.75001 10.3593 3.02918 10.3859 3.32236 10.3859C3.72717 10.3859 4.13202 10.3328 4.5089 10.2399C2.44291 9.84138 0.893367 8.11484 0.893367 6.02968V5.97657C1.4936 6.29533 2.19163 6.49454 2.93143 6.52107C1.71695 5.75075 0.921297 4.43592 0.921297 2.94841C0.921297 2.15155 1.14461 1.42108 1.53549 0.783574C3.75505 3.3867 7.09138 5.08667 10.8325 5.27264C10.7627 4.95389 10.7208 4.62189 10.7208 4.28985C10.7208 1.92576 12.731 0 15.2297 0C16.5279 0 17.7005 0.517967 18.5241 1.35469C19.5431 1.16876 20.5203 0.810147 21.3858 0.318752C21.0507 1.31487 20.3388 2.15159 19.4036 2.6828C20.3109 2.58988 21.1904 2.35076 22 2.01876C21.3859 2.86873 20.6181 3.62573 19.7386 4.2367Z" fill="black"/>
</svg>
