<svg width="14" height="16" viewBox="0 0 14 16" fill="none" xmlns="http://www.w3.org/2000/svg">
<path d="M7.27067 7.52083C9.39456 7.52083 11.1159 5.83746 11.1159 3.76042C11.1159 1.68337 9.39456 0 7.27067 0C5.14678 0 3.42543 1.68337 3.42543 3.76042C3.42543 5.83746 5.14678 7.52083 7.27067 7.52083ZM9.96234 8.46094H9.46065C8.79374 8.7606 8.05173 8.93099 7.27067 8.93099C6.48961 8.93099 5.7506 8.7606 5.08069 8.46094H4.579C2.34997 8.46094 0.541504 10.2295 0.541504 12.4094V13.6315C0.541504 14.41 1.18738 15.0417 1.98347 15.0417H12.5579C13.354 15.0417 13.9998 14.41 13.9998 13.6315V12.4094C13.9998 10.2295 12.1914 8.46094 9.96234 8.46094Z" fill="white"/>
</svg>
